<?xml version="1.0" encoding="UTF-8"?>
<svg id="Layer_2" data-name="Layer 2" xmlns="http://www.w3.org/2000/svg" viewBox="0 0 1920.28 747.43" pointer-events="none" preserveAspectRatio="xMidYMax meet"
>
  <g id="Layer_1-2" data-name="Layer 1">
    <path pointer-events="auto" d="M0,747.43V49.36c5.3,1.15,10.94.66,15.96-1.39.49-.2,1.02-.42,1.52-.24.52.18.8.71,1.11,1.16,1.74,2.53,5.75,3.09,8.12,1.13.92-.77,1.6-1.83,2.64-2.44,1.97-1.15,4.45-.29,6.73-.23,4.17.1,8.19-2.62,12.28-1.82,5.31,1.04,7.78,8.12,5.35,12.94-.49.96-1.14,1.98-.91,3.03.16.72.71,1.3,1.3,1.75,2.8,2.13,7.02,2.15,9.84.06,2.63,2.75,6.05,4.6,9.1,6.88s5.9,5.28,6.51,9.04c.21,1.31.15,2.67.56,3.93,1.11,3.44,5.37,5.19,6.26,8.69,1.29,5.04-5.16,9.24-4.88,14.44.1,1.79,1,3.41,1.53,5.12.71,2.25.78,4.65.84,7.01.19,7.21.39,14.43.58,21.64.03,1.09.13,2.33.99,3.01.36.29.82.43,1.27.5,1.86.3,3.87-.56,4.93-2.12,1.02-1.49,1.19-3.49,2.43-4.81.71-.76,1.7-1.21,2.45-1.93,3.19-3.08.43-8.6,1.87-12.79.33-.96.89-1.84,1.17-2.82.71-2.46-.41-5.17.7-7.62.38-.86,1.09-1.57,1.99-1.83,2.01-.57,3.58,1.26,4.7,2.87,1.54,2.22,3.15,4.63,3.13,7.33-.01,1.67-.66,3.29-.6,4.95.12,3.69,3.61,6.72,3.44,10.41-.09,2-1.25,3.8-1.53,5.79-.72,5.26,3.24,11.12,6.29,15.48,3.24,4.63,3.75,10.57,5.63,15.9,1.17,3.33,2.9,6.44,4.61,9.53,5.05,9.11,10.1,18.22,15.15,27.33.34.61.69,1.23,1.23,1.66.68.54,1.58.71,2.45.78,4.59.42,9.32-1.29,12.58-4.53.92-.92,1.78-1.98,3.57-1.57,1.31.3,2.38,1.3,2.87,2.56.92,2.39.15,4.91-.2,7.37-.32,2.22-.16,4.78,1.54,6.24.78.67,1.83,1.05,2.42,1.89.56.8.58,1.85.58,2.83,0,5.47,0,10.94,0,16.41,0,3.51-3.18,5.23-3.3,8.23-.08,1.99,1.86,2.99,2.72,4.56,1.64,2.99.88,4.77,3.76,7.07s5.37,4.53,7.57,7.36c.27.35.55.72.72,1.13.23.53.29,1.11.34,1.69.17,1.66.33,3.33.5,4.99.24,2.45.75,5.31,2.94,6.44.82.42,1.76.53,2.59.92.89.42,1.6,1.15,2.29,1.86,1.88,1.95,3.75,3.89,5.63,5.84.38.4.81.82,1.35.92.43.08.89-.05,1.29.11.45.18.68.66,1.02,1,1.15,1.16,3.07.56,4.71.63.45.02.92.11,1.25.42.24.22.37.55.63.75.29.23.69.25,1.06.27,1.96.1,3.92.19,5.88.29.44.02.92.05,1.27.33.52.41.54,1.17.52,1.83-.12,2.83-.31,5.97,1.46,8.19,1.13,1.41,2.86,2.17,4.53,2.89.7.3,1.44.61,2.2.58.53-.02,1.04-.2,1.53-.41,1.91-.83,3.53-2.29,4.71-4-.26-2.3,1.96-4.54,4.26-4.31,2.76.28,4.33,3.19,5.55,5.68,1.48,3,3.24,6.01,5.97,7.94,1.15.82,2.45,1.42,3.53,2.33.97.81,1.74,1.85,2.77,2.57,1.91,1.34,4.48,1.45,6.71.77,2.65-.81,4.91-2.59,7.05-4.3.62-.5,1.38-.84,2.18-.86,2.37-.05,2.93,2.2,2.93,4.06,0,1.48.08,3.84.99,5.01,4.34.53,9.29.87,12.53-2.07,1.23-1.12,2.1-2.64,3.52-3.51,1.53-.93,3.43-.93,5.22-.87,2.2.07,4.44.21,6.51.96s3.98,2.23,4.76,4.28c1.06,2.81-.13,6.16,1.15,8.88.5,1.06,1.34,1.93,1.9,2.96.79,1.44,1.03,3.13,1.82,4.57,1.63,2.99,5.3,4.31,8.71,4.44s6.79-.67,10.2-.73c1.23-.02,2.51.07,3.57.7,1.1.65,1.81,1.8,2.35,2.96,2.09,4.43,2.35,9.68.73,14.3-.2.58-.43,1.21-.22,1.78.29.77,1.22,1.03,2.03,1.19,2.07.4,4.54.65,5.97-.89.82-.88,1.06-2.12,1.28-3.3.73-3.99,1.45-7.98,2.18-11.97.36-1.98.74-4.01,2.2-5.56.5-.53,1.13-.94,1.83-1.13,2.87-.8,4.82,1.83,6.91,3.55.38.31.82.61,1.31.6.47,0,.88-.29,1.26-.57,2.87-2.13,5.49-4.6,7.78-7.34.8-.96,1.58-1.97,2.66-2.6s2.55-.77,3.52.02c.64.52.94,1.34,1.21,2.11,1.15,3.26,2.64,6.03,3.75,9.31.54,1.59,1.1,3.18,1.68,4.76.46,1.26.91,2.75,2.08,3.5.83.53,1.88.59,2.86.54,2.02-.1,4.01-.56,5.87-1.35.59-.25,1.17-.55,1.59-1.03.74-.86.77-2.09.84-3.22.35-5.47,2.8-11.15,7.6-13.83,1.67-.93,3.86-1.42,5.43-.34.96.66,1.49,1.76,1.98,2.82,3.1,6.66,6.21,13.35,8.03,20.5.77,3.01,1.77,5.95,3.13,8.74.9,1.84,2.23,4.15,4.39,4.71.88.23,1.82.14,2.72.25,2.08.27,3.89,1.62,5.16,3.28s3.04,2.84,3.83,4.78c-1.33,5.6,1.5,11.93,6.58,14.67,1.03.56,2.25,1,3.39-.34.63-.74.91-1.72.87-2.69-.22-4.87,1.65-10.98,6.48-12.41.58-.17,1.2-.27,1.72-.59,3.04-1.86-.51-8.01,2.55-9.71,1.03-.58,2.34-.3,3.22.48,2.67,2.37,1.68,6.7,5.73,8.23.76.29,1.58.4,2.38.31,3.4-.38,4.36-3.53,6.53-5.36,1.65-1.38,4.88-1.37,5.29.74.1.51,0,1.04.18,1.53.41,1.12,1.97,1.28,3.1.89,2.04-.7,3.52-2.44,5.31-3.63s4.5-1.69,5.91-.06c-.85,1.48-1.73,3.06-1.46,4.82.17,1.12.92,2.13,2.02,2.39,1.76.4,3.01-1.3,4.61-1.88,1.49-.54,3.14-.04,4.73-.1,2.87-.11,5.37-2.06,7.16-4.31,1.61-2.02,2.85-4.58,2.38-7.12-.11-.58-.29-1.25.07-1.73.23-.31.63-.44,1.01-.53,1.49-.32,3.1-.11,4.45.6,1.34,7.5,3.5,14.86,6.41,21.9.5,1.2,1.11,2.49,2.3,3.02.73.33,1.57.31,2.34.51,3.34.86,4.27,5.08,4.56,8.52,1.76.01,3.03,1.8,3.32,3.53s-.1,3.5-.02,5.25c.14,3.18,1.75,6.08,3.33,8.85,1.7,2.99,3.53,6.44,5.23,9.43-1.51,3.98.68,8.96,4.63,10.56.86.35,1.87.63,2.29,1.45.24.47.23,1.02.3,1.55.42,3.36,4.1,5.44,7.48,5.64s6.71-.9,10.09-1.23c.75-.07,1.56-.1,2.2.31.53.33.86.9,1.32,1.32,2.04,1.85,5.66.13,7.9,1.72,1.7,1.2,1.77,3.63,2.35,5.62,1.33,4.54,5.98,7.47,10.67,8.2.84.13,1.72.22,2.43.69,1.93,1.31,1.17,4.23,1.41,6.54.37,3.52,3.62,6.22,7.08,7,3.46.78,7.08.04,10.5-.89.54-.15,1.1-.31,1.48-.71.36-.38.51-.91.59-1.43.3-1.97-.24-3.96-.73-5.9-.58-2.29-1.09-4.73-.06-6.97.44-.96,1.2-1.77,2.16-2.2,3.49-1.57,5.65,2.98,8.72,2.48,1.27-.21,2.22-1.25,2.94-2.31.8-1.2,1.46-2.57,1.44-4.01-.02-1.74-1-3.61.41-5.05.87-.89,2.26-1,3.37-.45,2.25,1.12,2.88,3.54,3.4,5.78l2.72,11.6c.38,1.6.93,3.17,1.75,4.6,2.24,3.91,4.57,4.12,7.92,4.48,2.85.31,5,2.25,6.86,4.38,5.11,5.85,8.92,12.83,11.08,20.29.33,1.14.62,2.3.64,3.48.01.95-.15,1.93.16,2.83.69,2.03,3.24,2.6,5.37,2.85,5.22.62,11.54.79,14.57-3.5,1.98-2.8,1.76-6.52,2.12-9.94s1.95-7.32,5.33-7.98c1.25-.24,2.77-.08,3.54-1.09,1.05-1.38-.36-3.71,1.95-4.72,1.12-.49,2.4-.33,3.48.23,3.36,1.77,6.41,4.1,9,6.87.71.76,1.4,1.56,2.32,2.04,2.64,1.37,5.74-.45,8.14-2.2-1.84-1.54-1.1-5.07,1.2-5.75,2.78-.81,5.14,1.98,6.95,4.23s5.24,4.34,7.31,2.32c.79-.77,1.05-1.93,1.67-2.85,1.7-2.55,5.72-2.82,7.21-5.5.6-1.08.67-2.36.72-3.6.14-3.4.29-6.81.43-10.21.12-2.76.25-5.6,1.98-7.95.72-.99,1.75-1.75,2.94-2.06,4.49-1.16,7.26,4.04,11.19,5.99l3.7-21.34c.13-.76.59-1.47,1.31-1.77,1.07-.45,1.87.31,2.46,1.06,1.64,2.03,2.81,4.43,3.42,6.96.49,2.04.62,4.19,1.43,6.13s2.55,3.71,4.66,3.7c4.02-.04,7.37-6.28,10.92-2.18.47.55.78,1.21,1.09,1.87.63,1.35,2.71,2.56,3.82,1.44,1.11-1.11.14-3.46,1.46-4.3.45-.28,1.01-.27,1.54-.27,6-.04,12.13-3.18,14.89-8.49,1.74-.43,2.72-2.31,3.08-4.06s.35-3.62,1.14-5.23c.46-.94,1.19-1.78,1.36-2.81.09-.53.02-1.08.11-1.61.21-1.18,1.2-2.07,2.23-2.71,3.12-1.92,6.92-2.29,10.57-2.62l8.88-.78c.73-.06,1.48,0,2.16.3,1.71.73,1.54,1.95,1.48,3.08-.12,2.41.38,4.84,1.43,7.01,1.92-2.35,5.29-2.86,8.33-2.86s6.23.3,8.98-.98c1.8-.84,3.27-2.31,5.16-2.92,1.07-.35,2.22-.39,3.35-.44,2.33-.09,4.74-.17,6.91.67.97.37,1.88.93,2.91,1.13,1.92.38,3.9-.57,5.33-1.91s2.43-3.06,3.58-4.65c4.13-5.74,11.5-10.57,18.56-10.08,2.68-.77,5.62-1.73,7.01-4.15.5-.87.75-1.86,1.24-2.72,1.25-2.18,3.79-3.22,5.61-4.96,3.1-2.96,4.54-8.73,2.22-12.33,1.57-1.14,3.98-.93,5.33.48,2.03,2.12,1.74,6.28,4.83,6.98,1.23.28,2.5-.24,3.37-1.17,1.81-1.95,1.87-4.55,2.38-6.98.97-4.61,3.63-8.73,4.61-13.33.27-1.24.41-2.51.63-3.76.6-3.33,1.8-6.54,3.24-9.6.53-1.12,1.11-2.26,2.06-3.07s2.33-1.22,3.46-.69c1.42.67,1.87,2.44,2.09,3.99.54,3.72.78,7.49.72,11.25-.06,3.89-.37,8.09,1.76,11.34.51.78,1.17,1.49,2.02,1.87,1.03.45,2.22.38,3.29.52.8.11,1.62.19,2.43.11,7.45-.74,7.2-6.29,7.03-10.9-.01-.31-.01-.66.18-.9.14-.18.36-.27.57-.34,3.07-1.06,6.35.85,9.6.87,1.63,0,3.23-.47,4.79-.93.26-.08.52-.16.71-.34.51-.49.24-1.33.25-2.04.03-1.19,2.03-2.91,3.22-2.84,1.15-.76,2.34-1.54,3.7-1.84s2.93-.02,3.8,1.05c.66.81.82,1.9.98,2.92.78,5.05,2.08,10.02,3.89,14.8.89,2.35,1.94,4.71,3.67,6.54s4.3,3.04,6.78,2.58c-.43-2.85-.82-5.94.62-8.44.84-1.46,2.24-2.59,2.85-4.16.64-1.64.31-3.51.87-5.17.78-2.33,3.11-3.83,4.12-6.07.98-2.16.6-4.65.58-7.02-.02-2.37.55-5.08,2.62-6.24,3.99,4,6.68,9.27,7.58,14.84.28,1.76.56,3.82,2.5,4.39.88.26,1.84.04,2.59-.49,1.78-1.26,2.22-3.35,2.62-5.34,1.32.62,2.96-.03,3.93-1.12s1.41-2.54,1.83-3.94c.62-2.07,1.24-4.13,1.86-6.2.27-.92.58-1.88,1.28-2.52,1.11-1.01,2.86-.9,4.24-.31s2.56,1.57,3.91,2.2c.41.19.87.35,1.31.23.88-.24,1.13-1.41,1.91-1.87.77-.46,1.74-.09,2.64-.04,1.52.09,3.03-.91,3.55-2.34s0-3.16-1.22-4.07c-1.67,1.88-5.05.39-6.01-1.92s-.44-4.94-.37-7.45c.06-2.5-.35-4.98-.36-7.48-.02-2.95.59-6.07,2.9-8.09,1.11-.98,2.57-1.54,4.05-1.41,3.02.27,4.12,2.95,5.74,4.98s4.68,3.47,6.34.64c.39-.67.57-1.44.58-2.22.03-2.45,1.44-4.91,1.04-7.34-.69-4.14.05-8.51,2.08-12.19.67-1.22,1.53-2.41,2.78-3.02,1.81-.88,4.08-.28,5.63.99s2.52,3.12,3.31,4.97c2.14,5.03,3.25,10.5,3.22,15.96,0,1.58-.11,3.17.21,4.72s1.13,3.08,2.52,3.84c1.17-1.51.26-3.71.59-5.59.43-2.44,2.84-4.02,3.83-6.29,1.05-2.43.32-5.24.53-7.88.31-3.88,2.65-7.3,5.17-10.27.59-.7,1.22-1.42,1.47-2.3.18-.63.15-1.3.12-1.95-.14-3.08-.27-6.17-.41-9.25,1.5.05,2.99.11,4.49.16.45.02.9.04,1.31.22.53.25.89.75,1.2,1.25,1.68,2.77,2.31,6.16,1.74,9.35-.29,1.61-.87,3.15-1.08,4.77s0,3.4,1.09,4.61c.84.93,2.07,1.39,3.07,2.14,1.32.98,2.23,2.47,2.51,4.08.4,2.35-.26,5.36,1.74,6.66.53.35,1.19.49,1.82.39,2.67-.41,3.29-4.38,5.81-5.34,1.89-.73,3.91.55,5.6,1.67s3.94,2.15,5.63,1.03c1.78-1.18,1.57-3.82,1.04-5.89-.52-2.07-1.04-4.57.47-6.08.5-.5,1.15-.8,1.67-1.27,1.76-1.56,1.56-4.28,1.62-6.62s1.14-5.24,3.49-5.34c2.31-.09,3.9,3.16,4.58,5.36,1.82-.22,3.82-.39,5.36.62,2.41,1.59,2.74,5.52,5.44,6.54,1.79.67,3.73-.29,5.63-.46,2.86-.26,5.58,1.3,8.44,1.42,3.09.13,6.15-1.43,9.19-.87.11-.94.97-1.66,1.88-1.9s1.89-.12,2.83.01c.15-.39.3-.78.45-1.17-1.02-.27-1.51-1.67-.89-2.52.25-.34.62-.57.91-.87.83-.86.93-2.21.68-3.38s-.8-2.26-1.08-3.43c-.74-3.05.56-6.48,3.13-8.29.65-.46,1.39-.83,1.9-1.44.84-1,.92-2.41.96-3.72.26-8.58,1.74-17.58,1.26-26.15-.06-1.02.8-1.92,1.82-1.76,1.19.19,1.91,1.22,2.55,2.17.6.91,1.21,1.82,1.81,2.72.34.51.71,1.04,1.27,1.29.83.37,1.79,0,2.7.07,1.08.08,2.01.76,2.87,1.42,1.9,1.45,3.9,3.07,4.59,5.36.35,1.15.33,2.37.31,3.57-.09,5.28-.18,10.56-.28,15.83-.01.64,0,1.33.36,1.86.51.72,1.58.85,2.39.51s1.41-1.04,1.91-1.76c1.93-2.8,2.78-6.32,2.36-9.7,1.22-.19,2.4.58,3.17,1.54s1.24,2.13,1.9,3.16c1.25,1.94,3.22,3.42,5.44,4.07.65-1.38,1.16-2.92,1.82-4.3-.29-1.98-.58-4.01-.18-5.98s1.65-3.88,3.56-4.51c1.48-.49,3.28-.22,4.47-1.23.51-.44.83-1.06,1.27-1.57,1.57-1.78,4.56-1.7,6.48-.3s2.91,3.74,3.37,6.06.48,4.71.92,7.04c1.05,5.56,4.38,10.37,7.64,15,1.11,1.57,2.39,3.27,4.28,3.66.38-1.91-.8-3.74-1.48-5.57-1.56-4.19-.57-8.85.44-13.2.61-2.65,1.27-5.39,2.91-7.55s4.58-3.6,7.15-2.68c1.5.54,2.63,1.78,3.93,2.71s3.09,1.56,4.47.75c1.02-.6,1.48-1.8,2.23-2.72,1.23-1.52,3.38-2.25,5.28-1.79.67.16,1.32.45,2,.43s1.43-.55,1.36-1.23c-.04-.42-.36-.74-.62-1.07-1.32-1.64-1.48-3.98-.93-6.01s1.72-3.83,2.88-5.6c.64-.99,1.32-2,2.3-2.65.8-.52,1.76-.77,2.55-1.31,2.17-1.48,2.43-4.49,3.25-6.98.75-2.28,2.19-4.4,4.25-5.63s4.78-1.48,6.89-.33c1.41.77,2.44,2.06,3.63,3.14,1.31,1.19,2.83,2.13,4.48,2.77,1.42.55,3,.88,4.47.49,1.22-.32,2.25-1.1,3.39-1.63s2.67-.94,3.81-.4c1.85.89,3.93,1.31,5.98,1.23.4-.02.84-.07,1.12-.35.37-.38.32-.98.37-1.51.16-1.76,2-3.17,3.74-2.89.18,2.81,1.97,5.46,4.52,6.67.23-1.72-.44-3.43-.63-5.16s.34-3.82,1.98-4.41c.67-.24,1.43-.19,2.07-.52.87-.45,1.24-1.5,1.33-2.47.34-3.6-2.12-7.31-.8-10.67.15-.39.36-.77.69-1.02.37-.28.85-.36,1.31-.39,2.64-.15,5.05,1.34,7.27,2.76,1.74,1.12,3.66,2.51,3.88,4.57.14,1.32-.48,2.65-.28,3.96.34,2.18,2.72,3.38,4.88,3.87,1.08-4.34,2.57-8.58,4.45-12.63.58-1.25,1.43-2.66,3.02-2.37.9.16,1.64.83,1.99,1.67,1.65,3.92,2.4,8.5,5.35,11.64.65.69,1.51,1.33,2.45,1.19.85-.13,1.46-.85,1.96-1.54,2.92-4.04,4.73-8.88,5.18-13.85.32-3.52-.03-7.07.11-10.6.14-3.6.8-7.19,1.95-10.61.16-.46.35-.96.77-1.2.32-.18.71-.18,1.08-.17,1.45.03,3.69-.37,5.14-.34l3.25-1.24c-.68-3.49.97-6.99,2.71-10.09,1.33-2.38,2.79-4.76,4.92-6.46s5.05-2.65,7.64-1.77c2.46.83,4.75,3.23,7.29,1.67.94-.58,1.59-1.54,1.92-2.59l3.8-11.92c.53-1.67,1.1-3.41,2.33-4.67,1.07-1.1,2.62-1.8,3.3-3.18,1.24-2.51-.71-6.48,1.7-7.87.97-.56,2.21-.34,3.06.38,1.43,1.21,1.72,3.04,1.97,4.77.45,3.07.9,6.14,1.35,9.21.42,2.85.91,5.87,2.78,8.06,1.95,2.27,5,3.21,7.9,3.97,5.23,1.38,10.68,2.55,16.01,1.64s10.54-4.39,12-9.58c.72.54,1.17.19,1.85.79,1.76,1.56,3.34,2.11,5.61,2.76-1.2-4.79,3.45-10.03,8.36-9.43,1.57.19,3.09.87,4.67.76,1.59-.11,3.01-1.02,4.3-1.96,2.53-1.84,4.88-3.94,7.01-6.23,1.99-2.16,4.79-4.74,7.42-3.44,1.31.65,2.05,2.11,3.35,2.77,3.45,1.76,7.86-3.14,11.14-1.09,2.88,1.8,1.22,6.59,3.22,9.33,1.87,2.57,5.79,2.07,8.89,1.3-1.02-3.45-.3-7.24,1.24-10.49,1.54-3.26,3.83-6.09,6.11-8.89l6.98-8.58c1.08-1.33,2.41-2.47,3.97-3.19,6.54-3.03,10.43,2.77,13.72,6.91.59.74,1.44,1.28,2.39,1.34,2.46.15,3.17-2.7,3.28-4.91.11-2.33.74-5.37,3.56-5.06,1.05.11,1.97.73,2.63,1.54,2.48,3.06,6.88,4.29,10.61,3.12,1.74-.54,3.31-1.55,5.04-2.12s3.84-.58,5.18.66c-1.22,2.14-.79,5.07.99,6.78s4.73,2.01,6.82.72c3.75-2.32,3.49-7.8,5.56-11.69,1.62-3.04,6.6-5.67,10.05-5.85,1.3-2.43,5.12-2.07,7.47-1.66,1.19.21,2.44.11,3.54-.4,4.22-1.95.99-6.89,3.24-9.57.96-1.15,2.82-1.41,4.06-.57.51.35.92.85,1.48,1.13.77.39,1.7.28,2.55.14,2.81-.46,5.64-1.14,8.12-2.54,6.2-3.5,9.2-10.83,10.28-17.86.5-3.25.76-6.72,2.73-9.36,2.45-3.27,6.91-4.33,11.01-4.42,4.77-.11,9.78.89,13.41,3.98,1.86,1.58,3.56,3.77,5.99,3.95,1.09.08,2.16-.28,3.2-.64,2.38-.81,4.8-1.65,6.83-3.14,2.02-1.48,3.54-3.53,5.39-5.22s4.25-3.08,6.73-2.75c1.98.26,3.8,1.59,5.78,1.36,3.69-.43,5.05-4.81,7.55-7.54,1.14-1.25,2.24-2.53,3.15-3.95,1.51-2.36,3.06-4.82,3.96-7.52,1.48-4.41,1.31-9.54,4.21-13.19,1.05-1.32,2.44-2.34,3.86-3.25,1.25-.79,2.64-1.54,4.12-1.44,2.58.17,5.97,2.76,8.33,3.8,8.79,3.85,20.75.43,27.21,7.51,2.67,2.92,4.15,7.46,8.34,7.97,2.09.25,4.13-.68,5.6-2.2,4.49-4.66,3.37-12,7.11-16.9,1.25-1.64,2.97-2.9,4.05-4.66,2.65-4.35.5-9.95,1.02-15.01.38-3.71,2.21-7.1,4-10.37,2.06-3.76,4.12-7.52,6.18-11.27.61-1.12,1.25-2.26,2.24-3.06,2.45-1.97,6.04-1.16,9.06-.26,1.44,4.6,4.46,10.24,9.22,9.44,2.98-.5,6.43-3.42,8.42-1.15l.84,3.49c9.83,2.69,21.12-1.24,27.15-9.44,1.94.98,2.91,3.19,1.91,5.11v737.16L0,747.43Z"/>
  </g>
</svg>