<?xml version="1.0" encoding="UTF-8"?>
<svg id="Layer_2" data-name="Layer 2" xmlns="http://www.w3.org/2000/svg" viewBox="0 0 1040.63 322.17">
  <g id="Layer_1-2" data-name="Layer 1">
    <path d="M304.84,0v1h0c4.34,0,8.53.35,12.45,1.04,12.13,2.13,23.36,7.72,34.23,13.13l89.89,44.7,89.89,44.7c23.56,11.72,50.27,25,78.65,25.94,1.12.04,2.25.06,3.37.06,32.67,0,62.55-15.86,91.45-31.2,19.82-10.52,40.3-21.39,61.75-27.29,13.01-3.58,26.8-5.39,40.97-5.39,31.78,0,64.97,8.95,95.97,25.9,35.87,19.6,69.56,49.35,106.04,93.63,12.55,15.24,21.33,29.88,26.1,43.5,6.07,17.36,5.28,32.49-2.34,44.98-5.79,9.49-15.54,17.16-30.7,24.14-36.05,16.59-76.96,20.16-115.8,21.55-14.73.53-30.04.79-45.51.79-92.57,0-186.49-9.49-277.31-18.66-59.21-5.98-120.43-12.17-180.77-15.68-50.29-2.93-103.56-4.29-167.66-4.29-49.85,0-100.52.84-149.53,1.65l-8.88.15c-1.4.02-3.26.05-5.15.05-12.22,0-24.8-1.04-34.01-8.62-10.66-8.77-13.55-23.9-14.88-36.09-2.42-22.21-6.09-77.08,12.02-106.67,10.19-16.66,30.38-23.42,49.91-29.96,8.43-2.82,16.4-5.49,23.53-8.9,11.39-5.45,21.94-12.75,32.13-19.82,2.73-1.89,5.55-3.84,8.34-5.73,43.77-29.59,92.02-50.77,143.43-62.94,9.69-2.3,21.12-4.64,32.42-4.64V0M304.84,0c-10.94,0-21.95,2.13-32.65,4.67-51.2,12.13-100.17,33.62-143.76,63.09-13.19,8.92-25.98,18.61-40.34,25.48-23.85,11.4-59.1,15.11-73.86,39.24C-2.57,159.93-1.27,209.18,2.07,239.78c1.47,13.53,4.73,28.1,15.24,36.75,9.41,7.75,22.25,8.85,34.65,8.85,1.73,0,3.46-.02,5.16-.05,52.79-.87,105.59-1.8,158.39-1.8,55.9,0,111.8,1.04,167.61,4.29,152.93,8.9,305.19,34.34,458.14,34.34,15.17,0,30.37-.25,45.55-.79,39.64-1.41,80.15-5.06,116.18-21.64,12.18-5.61,24.15-13.08,31.13-24.52,17.23-28.25-2.8-64.1-23.84-89.64-30.25-36.72-64.58-71.06-106.33-93.87-29.47-16.11-63.09-26.02-96.45-26.02-13.89,0-27.75,1.72-41.24,5.43-53.05,14.59-98.33,58.45-152.93,58.45-1.11,0-2.22-.02-3.34-.05-27.67-.91-53.45-13.5-78.24-25.83-59.92-29.8-119.85-59.61-179.77-89.41-11.07-5.5-22.33-11.07-34.5-13.22C313.28.32,309.06,0,304.84,0h0Z"/>
  </g>
</svg>