<?xml version="1.0" encoding="UTF-8"?>
<svg id="Layer_2" data-name="Layer 2" xmlns="http://www.w3.org/2000/svg" viewBox="0 0 1927.23 747.8">
  <g id="Layer_1-2" data-name="Layer 1">
    <path d="M6.71,747.8C35.39,728-52.07-23.75,55.04,45.9c11.37,2.29,2.29,12.51,5.76,17.72,10.29,1.46,25.51,5.43,26.01,19.9,10.13,8.22,4.19,13.41,1.38,23.13,5.31,11.09-3.22,54.02,15.03,28.42,3.96-6.63-.18-19.36,5.72-25.06,16.93,8.21,2.35,34.27,15.43,46.82,7.65,18.24,14.88,41.68,29.06,55.21,7.57,3.09,14.06-11.13,19.02-3.55-.88,14.46,10.29,28.34,1.04,42.98,2.52,10.77,15.89,15.23,15.61,26.8,4.47,12.14,19.33,19.28,31.9,19.77,1.95,18.84,9.47,14.48,19.21,4.76,29.28,39.64,26.38,4.53,36.7,18.18,2.95,17.5,25.72-13.65,33.51,3.81-1.83,34.8,38.56,6.13,30.43,38.06,13.44,17.67,6.48-34.01,22.19-16.34,5.27,1.44,8.85-7.37,13.01-9.9,9.92-1.97,5.48,20.2,15.1,20.24,12.44.97,6.12-15.53,15.9-19.44,16.18-2.15,10.83,29.95,22.97,36.42,5.38-.32,9.09,4.16,11.71,8.32-2.22,5.53,3.76,17.34,9.97,14.33,1.68-5.05.75-13.36,7.35-15.1,5.8.05-.17-14.13,7.49-9.82,3.47,7.78,8.8,12.18,14.65,3.18,6.2-3.67,5.8,8.98,13.89-.47,13.15-4.93-5.86,11.57,15.82,5.17,19.36-11.1,8.21-29.37,21.48,8.82,17.51,10.31,11.89,38.9,27.97,51.13,2.72,13.03,20.69,3.32,29.3,9.31,3.01,5.72,4.61,13.33,13.02,13.82,7.6,5.9,3.32,19.69,21.42,13.34,6.3-3.01-3.82-13.8,3.43-17.21,21,7.71,6.19-8.6,16.87-9.35,3.79,2.73,4.93,13.01,6.12,17.39,8.6,13.57,29.6,17.78,28.41,40.07,8.25,7.64,24.38,2.19,22.06-10.58.38-8.77,8.93-6.69,10.82-13.79,11.95.34,17.93,20.46,24.14,1.2,12.22,3.37,9.59,17.13,23.86-5.39.77-47.44,17.93,9.95,20.23-35.57,8.21-7.27,5.24,16.67,13.28,16.07,13.16-7.45,7.17-.44,15.84,1.14,1.17-1.51,0-5.11,3.01-4.58,15.55.29,17.02-15.23,22.8-24.91,10.09-3.69,24.88-7.73,24.53,6.99,6.18-5.38,16.1-.66,22.47-6.77,6.35-2.91,13.2,4.32,18.49-.54,8.45-15.65,26.72-12.68,36-26.56,6.86-10.25-.33-21.01,12.39-4.87,11.85-.85,8.55-50.21,21.83-34.62,2.3,7.79-2.51,18.88,4.49,24.47,8.05,2.87,14.63-2.9,12.75-10.27,1.35-3.7,7.27-.04,10.36-.38,24.98-18.42,12.73.89,25.02,17.32,14.07,14.91,12.84-65.57,26-19.69,2.23,10.91,7.59-1.58,11.63-2.56,3.49-6.08,3.4-18.83,13.12-10.76,3.2-.81,13.4-2.5,8.19-8.08-13.69,4.43-6.55-41.56,5.94-21.38,13.46,8.63,3.06-20.6,12.82-24.13,15.66-1.13,8.15,23.15,14.88,30.49,3.68-9.65,3.52-21.32,10.11-30.03,4.4-4.84-2.91-19.04,8.18-11.87,4.68,5.76-1.5,13.09,1.74,18.73,6.06,2.18,4.81,8.8,7.32,12.88,5.54,1.81,6.79-9.75,13.23-3.28,9.87,6.05,5-6.64,7.14-10.95,5.76-2.14.66-11.95,6.78-13.23,5.26,4.19,10.75,6.57,15.38,12.52,12.52-.09,33.67,4.28,28.05-13.18,8.6-12.84,5.1-50.18,11.61-39.19,25.36,10.66,5.4,39.22,17.94,30.88,3.98-14.41,3.68-6.58,12.87-.92,3.54-4.47-1.14-12.21,5.2-14.79,5.11.31,7.04-6.84,12.22-3.11,6.83,9.24,3.94,25.55,16.21,31.76-2.57-8.46-3.3-18.29,1.87-26.32,5.29-9.07,13.58,6.96,17.77-1.94,1.68-2.35,4.88-2.01,7.29-1.36-2.72-14.14,6.73-13.14,10.78-24.85,5.85-17.36,17.82,6.28,27.1-1.18,3.54-2.63,9.96,4.2,11.28-1.03,2.92-7.69,4.48,2.59,8.25,3.79-3.14-6.89,2-8.45,4.75-12.55-5.93-13.25,7.23-15.55,12.35-4.75,1.93,19.76,6.63-5,12.07-7.18,10.12,26.43,18.48,7.01,17.05-11.49-1.28-9.61,3.94-12.57,12.2-13.56,1.79-27.11,18.46-12.18,24.47-19.25,1.17-9.6,9.52-19.31,11.12-27.64,13.48,9.99-1,32.15,33.07,28.02,9.96-.99,10.11-13.21,19.45-6.02-1.96-7.65,7.19-10.93,13.03-8.67,7.61-.69,11.23-12.99,18.72-11.63,3.32,6.27,10.04.03,14.49,1.69,3.03,5.16,2.38,14.51,12.11,10.63-1.02-16.52,20.59-44.67,34.4-22.9,6.68-.32.77-15.04,9.48-8.43,8.4,9.98,20.46-7.7,21.81,8.45,19.04,4.15,3.39-21.36,33.46-18.87,8.57-25.78,20.49,12.33,32.46-38.64,9.66-12.1,24.08,2.75,33.61,2.88,7.9-.89,11.16-11.12,18.96-11.11,10.67,5.15,15.97-10.23,20.45-17.65.32-11.2,9.42-23.8,20.53-14.08,8.79,3.84,20.75.42,27.21,7.5,9.09,18.55,18.45-.23,21.04-11.13,9.8-11.59,3.08-29.06,15.26-41.3,6.96-13.36,13.73,6.33,20.51,6.13,2.99-.51,6.44-3.43,8.43-1.15,4,10.43,23.03,1.39,27.98-5.95,5.57,2.77,0,737.15,1.91,742.28,0-.01-1919.89,1.85-1919.89,1.85Z"/>
  </g>
</svg>