<?xml version="1.0" encoding="UTF-8"?>
<svg id="Layer_1" data-name="Layer 1" xmlns="http://www.w3.org/2000/svg" viewBox="0 0 1920 1080">
  <path d="M0,383V0h1920v335c-2.59,1.39-4.74,6.52-6.32,7.68-1.34.99-14.51,6.18-16.05,6.03-4.78-.47-6.73-6.09-8.3-6.61-2.84-.94-7.76,3.35-10.38,2.36-5.77-2.18-7.22-17.72-16.6-9.1-.77.7-7.71,9.95-7.91,10.59-1.27,3.99.16,8.73-.36,12.63-.04.28-1.01,2.49-1.47,4.73-1.97,9.66-4.01,6.63-6.11,10.71-.69,1.35-3.89,9.5-4.6,11.49-1.43,4,.12,11.19-6.59,11.26-.36,0-5.74-2.06-6.23-2.37-3.82-2.39-3.94-6.93-6.83-8.15-2.61-1.1-6.06-.36-8.26-.92-2.01-.52-4.31-2.31-6.98-2.83-3.11-.61-7.34.65-10.05.12-4.82-.94-4.87-6.06-11.22-4.38-8.36,2.21-8.77,15.7-12.74,22.27-1.11,1.84-9.83,12.43-11.03,12.97-3.27,1.48-5.45-.66-7.92.03-.6.17-9.56,5.7-10.58,6.47-2.14,1.62-2.31,4.51-4.99,5.04-5.34,1.06-6.48-2.16-10.28-3.73-4.95-2.05-13.86-5.71-18.95-3.54-6.88,2.94-5.13,7.69-6.72,12.28-.78,2.24-6.75,16.91-7.45,17.55l-11.55,6.34-8.53-3.92c-.37,3.48-.91,7.35-3.94,9.56-3.28,2.39-5.04.89-8.36,1.64-8.21,1.85-15.51,17.99-17.37,18.62-6.46,2.22-8.48-2.08-8.36-7.81-8.47,1.41-17.06,4.91-24.48-2-2.75,3.33-.19,8.63-6.05,10.03-5.37.53-8.53-13.29-16.96-6.07-2.06,1.76-12.56,13.8-13.95,16.05-3.47,5.65-.13,15.44-8.61,12.53-.89-2.37-4.28-10.78-6.63-11.44-3.45-.96-6.93,2.7-9.62,2.61-3.18-.1-5.05-3.51-7-3.56-2.73-.07-3.15,4.29-5.63,6.39-2.3,1.95-7.43,3.01-7.14,7.27-4.76,2.18-6.52-4.06-9.66-3.21-7.5,2.02-4.04,9.62-6.81,10.32l-7.46-2.59c-7.52,7.25-9.35,9.63-20.52,8.69-1.97-.17-3.08-1.57-4.13-1.7-6.54-.84-9.07,1.61-13.41-6.81l-3.92-19.55h-2.97c.22,6.18-5.28,9.6-7.44,14.08-2.41,5-2.22,16.02-9.21,16.58-1.87.15-12.47-.88-13.38-.22-3.37,2.92-3.18,11.38-4.47,13.58-.66,1.13-4.7,2.07-6.56,3.44-12.52,9.2-5.83,19.27-8.75,29.17-3.65,12.39-12.55,6.54-13.22-3.63-7.85.44-7.4,9.4-9.46,14.96-7.96-1.74-3.03-5.83-6.52-8.96-1.2,8.63-2.98-2.06-3.94-3.57-1.16-1.85-4.15-2.59-6.06-3.43-2.1,3.93.36,7.22-.4,11.04-.89,4.5-6.67,6.47-5.66,11.92l-4.96.05v-5s-2.63,4.05-2.63,4.05c-3.27,1.8-6.37-.23-8.77.02-5.51.57-8.53,3.69-14.87.7-3.35-1.59-4.43-6.21-9.44-4.04-7.64,3.3-1.58,10.51-2.77,12.27-2.23,2.15-5.25-1.07-7.86.91-1.68,1.27-.61,7.01-5.66,6.1l3,10.98-8.27-.81c-4.21,1.26-1.51,6.01-6.25,5.71-5.17-.33-8.45-10.21-14.21,1.88-4.48,9.39.36,13.33-.5,17.61-1.66,8.26-12.05-8.05-13-10.65-1.38-3.77-1.23-15.35-6.49-16.62-.75-.18-9.5,3.58-10.03,4.14-2.16,2.27-1.88,11.59-3.74,11.71l-9.01-5.94c-4.93,3-1.22,10.97-9.5,9.98-.49-6.33,2.43-22.99-3.42-27.09-2.05-1.44-4.44-.51-6.57-1.43-2.77-1.2-3.09-7-5.5-6.48-3.7.8-1.79,25.55-2.54,29.47-.55,2.88-5.34,6.22-5.81,8.23-.27,1.15.48,6.4.26,8.75-.2,2.12-3.1,4.81-.55,8.08l-1.4,1.44c-3.71-2.46-7.67,1.03-10.84.73-2.06-.19-5.33-2.53-8.29-2.65s-5.62,1.65-8.64.76c-2.83-.84-3.89-5.47-5.71-6.33-1.91-.9-4.16-.08-6.09-.92l-.92-2.85-2.49-.71c-2.39,5.44-5.31,10.78-6.43,16.66-.43,2.23,1.46,3.9-.59,6.27-4.55,5.25-8.87-2.47-11.91-2l-2.64,6.02c-3.89,3.35-10.54-12.78-13.49-14.89-.16-6.74.39-12.25-1.46-19.06l-6,1.01c.67,2.38,1.35,6.97.84,9.24-.9,4.04-5.91,6.54-6.58,9.49-.61,2.69-.08,5.41-.7,8.32-.92,4.3-4.53,8.02-5.5,12.5l-3.05.44c-1.03-5.64-1.39-25.11-7.74-26.85-9.41.16-6.38,10.5-7.33,16.3-.39,2.39-3.24,5.01-1.95,8.55-7.02.67-10.4-8.79-16.94-4.44-5.45,3.62-1.51,6.82-1.98,11.97-.32,3.51-3.04,5.93.57,10.58l6.34-.11c.25,7.92-9.8,11.37-15.99,7.43-3.86,2.41-3.19,8.33-5.58,11.48-.89,1.18-2.63,1.54-3.45,2.55-1.82,2.24-1.59,6.33-4.47,6.58-6.83.6-5.74-7.74-7.43-11.59-.52-1.18-2.92-4.82-3.83-6.15-.61-.9.15-1.85-2.23-1.3-.61.76.56,8.24,0,10.29-.23.86-2.55,1.08-3.41,3.89s.79,4.99-.24,7.55c-.74,1.84-4.84,2.68-5.92,6.21-.81,2.65-.39,5.37-.45,8.05-12.01.11-13.26-16.58-15.02-25.48-1.1-5.56-8.97-1.02-9.92,3.03-.59,2.49,5.53.89,3.94,5.44-2.98-1.24-4.91,1-7.93,1.57-9.34,1.75-5.51-.9-9.5-3.63-4.57-3.12-3.3,2.05-6.57,3.66,2.75,3.35-3.33,7.29-6.6,7.33-2.47.03-3.86-.61-5.17-2.64-.31-.49-3.1-9.14-3.19-9.85-.63-4.82-.77-6.56-1.62-11.37-.24-1.36,1.67-6.77-1.89-6.06-1.27.25-3.24,4.39-3.37,5.76-.04.44,3.37,9.68-.16,6.75-1.41-1.17-.11-3.67-1.98-3.51,1.91,4.56-2.45,8.17-2.84,10.69-.31,2.04,1.41,4.16.7,6.6-.62,2.12-3.44,2.07-4.21,3.93-1.18,2.85-.14,5.97-1.09,8.83-8.66,6.18-9.47-7.63-12.97-7.02-2.81.49-5.77,16.02-10.03,20.02-1.36,1.28-7.82,4.76-9.57,5.26-3.35.95-9.17-.04-12.66,3.01-1.6,1.4-1.8,4.39-2.9,5.6-1.35,1.48-3.91,1.28-5.5,3.54-.73,1.04-.78,3.1-1.08,3.37-1.43,1.29-10.37-.91-13.2-.77-2.99.15-14.78,2.36-17.95,3.13-2.92.71-5.91,4.51-9.7,3.79,1.04-4.08-1.19-9.8-5.04-11.53-.72-.32-11.67,1.58-13.01,1.99-9.89,3.03-7.82,12.41-12.43,18.57-3.67,4.9-11.3,11.11-17.52,7.97l-1.49,5.96c-3.43-.19-4.89-4.84-7.03-5.04-3.2-.3-7.12,5.61-12.43,1.53l-7.53-15.44c-3.36,2.58-3.65,20.2-5.48,21.55-4.52,1.97-7.35-5.61-9.51-5.62-9.7,2.66-2.93,22.01-6.78,25.8-.56.56-2.37.45-3.22,1.23-2.19,1.99-4.81,6.23-7.92,6.05l-12.58-8.02c.03,3.15-5.05,10.11-8.35,9.79-.77-.07-11.22-8.1-11.81-9.61-1.24-.73-9.55,5.01-10.52,6.15-3.65,4.32-4.82,20.04-8.8,21.27-.62.19-12.03-.44-13.01-.62-7.61-1.42-8.09-16.48-12.49-22.24-.98-1.27-2.8-1.68-4.02-3.24-1.94-2.47-4.63-9.34-7.42-9.44-2.46-.09-4.95,2.6-7.63-.52-.32-.37-4.63-6.83-4.75-7.24-1.38-4.77-.88-13.17-1.2-18.3-6.75.52-3.8,9.48-7.69,11.85-3.65,2.23-8.33-2.15-12.29-1.86.64,2.7-1.58,5.47-1.7,7.64-.2,3.52,3.8,8.57-1.01,11.41-3.37,1.99-12.58-.18-15.4-2.45-3.17-2.56-2.03-7.27-3.84-10.16-2.49-4-11.34-4.75-13.96-9.04-1.5-2.45-.59-7.01-2.03-7.97-2.34-.78-4.74-.16-7.12-.88-1.7-.51-4.02-3.31-5.44-3.23-3.06.16-5.5,7.74-14.01.69-3.66-3.03-2.34-6.34-2.64-6.8-.76-1.18-6.08-1.93-6.73-3.84-.61-1.8.04-4.92-.55-7.45-.52-2.21-2.22-3.97-2.89-6.11-1.76-5.59-6.63-25.81-10.75-28.25-1.69-1-4.04-.9-6.18-2.54-4.4-3.37-2.86-6.62-4-10.28s-5.61-7.04-3.76-12.74c-5.47.31-2.59,7.13-5.24,10.76-4.24.06-13.95,3.54-17.27,3.28-.86-.07-1.55-.2-2-1.02l-1.5-7.02c-5.35.25-3.93,6.12-11.48,6.04-3.76-.04.76-6.04-2.99-6.03-6.58,9.68-15.32,14.9-16.99-1.03-6.25-4.53-1.69,5.19-2.66,6.84-.84,1.42-8.12,3.93-9.75,6.8-1.96,3.45-.88,7.62-1.11,11.39-6.23.2-11.5,1.02-13.43-6.08-1.47-5.44.47-10.32-4.52-15.21-2.62-2.56-6.81-.42-7.06-.7-.59-5.56-4.64-10.48-6.89-15.63-1.81-4.15-6.32-20.12-9.81-21.22-2.91-.91-7.07,2.29-8.36,4.53s-.77,5.56-1.61,8.14c-2.18,6.67-13.33,11.17-17.21,3.53-1.57-3.1-.59-5.15-1.34-7.66-.45-1.49-2.37-2.46-3.04-3.96-1.01-2.26-.11-5.04-2.25-6.73-5.41,2.9-9.78,14.3-16.84,11.83-1.94-.68-1.95-4.81-5.14-3.83-8.2,7.49,1,26.06-15.01,22.99-5.34-1.02-.48-7.09-.48-10.5,0-1.68-1.94-7.86-2.96-9.06-2.43-2.83-6-.25-9.51-.41-1.78-.08-7.82-1.12-9.13-1.96-.44-.28-5.31-7.52-5.66-8.34-2.37-5.4-2.33-14.28-9.74-17.11-5.86-2.24-11.13,5.64-17.52,6.37-1.5.17-10.09.33-10.45-.05-.28-.29.13-5.18-2.56-5.95-2.1-.43-1.9,2.71-3.18,3.02-.61.15-11.97.89-12.6.79-7.38-1.1-11.13-18.22-15.37-19.67-6.35-2.17-6.22,8.2-14.76,6.79-9.38-1.54-4.47-8.76-9.6-12.41-2.9-2.07-10.9-2.09-14.91-4.09-1.15-.58-13.29-10.95-13.79-11.71-1.5-2.29-.64-8-1.79-10.71-1.08-2.53-8.83-7.45-9.97-10.03-.99-2.24-.26-4.83-.74-7.26-2.06-10.59.13-18.41-.72-28.22-.35-3.99-3.2-5.34-3.85-8.21-.84-3.74.16-8.41-.21-12.29-1.49-1.52-12.32,9-19.23,5.76-1.23-.58-9.98-13.29-11.41-15.63-6.49-10.64-11.27-22.18-15.41-33.59-1.79-4.93-5.55-11.47-6.51-14.49-1.39-4.35.28-10.06-.5-14.5-.48-2.69-3.43-5.47-3.88-8.12s.32-5.31-.11-7.89c-.36-2.18-3.03-4.44-1.96-7.55-5.5-.76-4.28,5.65-5.29,9.21-1.8,6.35-3.38,15.26-7.35,20.55-2.48,3.3-5.35,4.4-9.3,3.19,1.41-5.74-.71-10.44-1.05-15.46-.31-4.64.33-9.37,0-14-.21-2.89-2.03-5.32-2.03-7.99-.01-7.19,7.15-10.9,1.86-18.88-2.82-4.25-2.85-5.33-5.12-9.83s-9.26-10.5-13.7-12.12c-3.67-1.34-12.84,2.43-11.74-5.06.32-2.18,3.08-3.32,2.58-5.87-.29-1.46-4.98-7.07-6.57-7.55-1.2-.36-14.79.54-16.74.85-2.91.46-5.43,3.65-8.06,3.55-1.83-.07-3.6-2.38-5.94-2.46-4.87-.17-12.08,1.9-17.55.87Z"/>
</svg>